<?xml version="1.0" standalone="no"?>
<!DOCTYPE svg PUBLIC "-//W3C//DTD SVG 20010904//EN"
 "http://www.w3.org/TR/2001/REC-SVG-20010904/DTD/svg10.dtd">
<svg version="1.0" xmlns="http://www.w3.org/2000/svg"
 width="2040.000000pt" height="2040.000000pt" viewBox="0 0 2040.000000 2040.000000"
 preserveAspectRatio="xMidYMid meet">
<metadata>
Created by potrace 1.14, written by Peter Selinger 2001-2017
</metadata>
<g transform="translate(0.000000,2040.000000) scale(0.100000,-0.100000)"
fill="#000000" stroke="none">
<path d="M1319 13616 c-2 -2 -26 -7 -54 -10 -27 -4 -72 -11 -100 -16 -27 -5
-61 -11 -75 -14 -14 -2 -61 -14 -105 -26 -44 -12 -87 -23 -95 -25 -20 -4 -196
-69 -242 -89 -21 -9 -39 -15 -40 -14 -2 2 -17 -7 -35 -20 -17 -12 -34 -22 -38
-22 -13 0 -128 -72 -190 -119 -58 -43 -195 -179 -195 -193 0 -4 -6 -13 -13
-20 -19 -22 -71 -115 -82 -148 -9 -29 -37 -122 -42 -141 -3 -13 -7 -85 -9
-159 -4 -175 17 -258 101 -410 36 -65 143 -175 201 -206 19 -10 34 -22 34 -26
0 -5 9 -8 19 -8 11 0 21 -3 23 -7 4 -10 95 -52 128 -59 120 -28 168 -32 290
-30 l135 3 70 -72 c39 -40 79 -75 90 -80 69 -25 142 -6 185 48 36 46 34 116
-5 157 l-28 29 29 12 c16 6 57 21 92 35 35 13 69 27 75 31 7 4 14 8 17 8 14 2
56 18 60 24 3 3 28 17 55 31 43 21 140 82 235 147 14 10 29 23 33 30 4 7 14
13 21 13 21 0 193 87 258 131 232 158 350 363 342 595 -9 280 -139 458 -409
561 -44 16 -98 34 -120 38 -22 4 -51 10 -65 13 -28 6 -545 13 -551 8z m719
-385 c73 -37 138 -127 149 -205 l4 -32 -88 43 -88 43 -3 47 c-2 27 -10 63 -18
82 -8 18 -14 35 -14 37 0 9 23 3 58 -15z m-1145 -59 c-32 -32 -70 -72 -84 -89
-44 -50 -129 -175 -129 -190 0 -7 -5 -13 -12 -13 -6 0 -9 -3 -5 -6 3 -4 0 -18
-7 -33 -11 -21 -25 -75 -27 -106 -1 -2 -7 -30 -14 -60 -12 -54 -12 -225 0
-245 3 -5 8 -19 11 -30 10 -45 13 -56 24 -85 6 -16 11 -31 11 -32 0 -2 15 -33
34 -69 19 -37 35 -69 35 -71 0 -3 -13 -2 -29 2 -16 3 -42 8 -58 10 -110 15
-211 61 -257 116 -33 38 -77 123 -80 153 -1 12 -6 27 -10 34 -20 33 1 293 25
308 5 3 9 13 9 23 0 53 134 208 239 278 44 30 159 92 181 98 3 1 19 7 35 14
17 6 44 16 60 22 17 6 39 15 50 19 29 12 50 18 53 14 2 -1 -22 -29 -55 -62z
m735 26 c8 -7 17 -12 19 -10 10 7 73 -35 73 -51 0 -2 -35 -5 -77 -6 -43 -1
-87 -3 -98 -5 -10 -1 -39 3 -63 10 -24 8 -48 11 -53 8 -5 -3 -9 -1 -9 4 0 6
-9 8 -20 5 -11 -3 -20 0 -20 6 0 12 37 29 80 38 13 2 26 6 27 7 10 10 127 5
141 -6z m-92 -403 c48 -61 9 -209 -82 -311 -20 -22 -25 -23 -135 -19 -63 2
-125 7 -139 10 -14 4 -39 9 -57 12 -41 6 -47 25 -24 72 47 92 227 225 333 246
10 2 25 8 35 13 25 15 44 8 69 -23z"/>
<path d="M8687 13614 c-3 -3 -29 -7 -58 -9 -79 -6 -136 -14 -207 -30 -34 -8
-75 -17 -90 -20 -36 -6 -200 -52 -227 -64 -11 -5 -47 -18 -80 -31 -99 -37
-282 -129 -313 -157 -7 -7 -17 -13 -21 -13 -4 0 -16 -8 -27 -18 -10 -10 -27
-23 -37 -28 -32 -18 -156 -144 -187 -190 -39 -59 -92 -154 -85 -154 3 0 0 -10
-7 -22 -6 -13 -13 -28 -14 -35 -1 -6 -7 -27 -12 -45 -26 -82 -36 -259 -20
-350 48 -267 212 -462 464 -553 96 -34 116 -37 304 -39 l165 -2 65 -69 c94
-98 148 -116 224 -72 89 51 105 134 38 210 -8 9 -13 19 -11 21 2 1 42 17 89
33 47 17 110 42 140 56 103 45 155 71 160 77 3 4 28 19 55 35 28 15 55 33 60
39 21 24 123 86 175 107 245 101 446 300 505 499 23 78 38 207 24 216 -4 2 -6
10 -3 18 7 19 -24 158 -48 213 -90 205 -283 325 -598 370 -49 7 -417 13 -423
7z m702 -430 c44 -39 76 -100 84 -156 l5 -38 -62 34 c-33 18 -73 36 -88 40
-16 4 -27 13 -27 24 1 38 -12 115 -21 132 -6 10 -10 24 -10 30 0 16 75 -25
119 -66z m-1215 -6 c-100 -102 -120 -126 -162 -188 -20 -30 -40 -56 -44 -58
-5 -2 -8 -11 -8 -21 0 -9 -4 -21 -9 -26 -13 -15 -32 -80 -51 -175 -16 -79 -19
-215 -6 -265 3 -11 9 -36 14 -55 13 -50 49 -137 78 -189 13 -24 24 -45 24 -48
0 -2 -26 -3 -57 -2 -67 2 -186 44 -238 83 -62 48 -121 154 -133 241 -27 203
26 371 159 505 38 38 78 71 89 75 11 3 20 10 20 15 0 18 331 170 390 179 2 1
-27 -32 -66 -71z m761 13 c49 -22 80 -47 68 -54 -5 -3 -40 -6 -78 -7 -39 0
-81 -2 -95 -2 -14 -1 -52 4 -85 11 -90 20 -94 21 -65 34 97 41 188 48 255 18z
m-123 -378 c23 -26 37 -79 31 -110 -2 -16 -6 -37 -8 -48 -4 -31 -16 -55 -50
-110 -55 -87 -54 -87 -169 -81 -168 9 -246 25 -246 51 0 39 83 142 155 192 57
39 130 77 195 99 80 28 74 28 92 7z"/>
<path d="M10467 10773 c-2 -1 -12 -4 -23 -6 -10 -2 -32 -9 -47 -15 -16 -7 -32
-12 -37 -12 -20 0 -108 -100 -138 -158 -18 -34 -29 -62 -25 -62 4 0 3 -4 -3
-8 -6 -4 -23 -32 -37 -62 -14 -30 -53 -113 -86 -183 -34 -70 -61 -130 -61
-132 0 -2 -15 -37 -34 -77 -47 -104 -89 -202 -120 -283 -15 -38 -32 -79 -37
-90 -16 -37 -96 -249 -139 -370 -23 -66 -46 -129 -50 -140 -5 -11 -16 -43 -25
-70 -12 -39 -23 -54 -45 -63 -74 -33 -138 -132 -147 -227 -5 -53 10 -144 30
-176 7 -11 2 -42 -17 -105 -15 -49 -29 -93 -30 -99 -2 -5 -6 -17 -9 -25 -7
-19 -138 -479 -142 -503 -2 -9 -7 -22 -10 -27 -3 -5 -8 -18 -10 -27 -1 -10
-15 -61 -30 -113 -62 -222 -83 -318 -80 -368 3 -53 31 -123 63 -158 10 -10 30
-40 45 -66 60 -104 153 -160 265 -161 34 0 73 5 85 11 12 6 72 27 132 48 61
20 122 43 137 51 15 7 30 13 33 13 7 -1 115 39 129 48 6 3 16 7 21 8 40 7 476
212 590 276 130 75 299 181 355 225 8 7 39 29 68 51 65 48 159 137 234 222 75
84 69 77 114 146 21 32 41 61 45 64 9 8 90 175 92 190 2 8 5 20 8 25 4 6 14
46 24 89 26 120 10 267 -43 388 -30 68 -57 104 -135 180 -96 93 -260 172 -406
193 -14 2 -37 7 -51 10 -14 3 -70 8 -124 11 -55 3 -103 7 -108 10 -4 3 -12 3
-17 -1 -6 -3 -63 -8 -128 -10 -65 -3 -127 -7 -138 -9 -11 -2 -44 -7 -74 -11
-59 -8 -59 -8 -26 70 7 17 43 107 80 200 90 227 222 525 315 715 88 178 103
218 102 274 -3 125 -66 223 -175 271 -45 20 -150 38 -160 28z m378 -2136 c17
-4 50 -12 75 -20 42 -12 45 -16 43 -46 -2 -50 -89 -184 -178 -276 -102 -104
-267 -225 -439 -322 -74 -41 -423 -214 -440 -217 -6 -1 -30 -12 -53 -23 -46
-23 -50 -19 -34 33 19 60 62 204 66 221 5 22 27 96 55 188 12 39 22 77 24 85
1 8 8 31 14 51 7 20 15 45 17 55 11 47 53 186 58 191 8 7 159 39 232 49 17 2
41 6 55 9 33 7 80 13 165 21 39 3 71 7 72 8 5 4 240 -2 268 -7z"/>
<path d="M12570 10689 c-19 -4 -38 -5 -42 -3 -5 3 -8 2 -8 -3 0 -4 -14 -9 -31
-10 -63 -5 -182 -97 -220 -172 -8 -14 -16 -28 -19 -31 -33 -33 -33 -210 -1
-304 59 -168 167 -265 368 -330 187 -61 393 20 481 189 14 28 26 52 27 55 0 3
4 11 8 18 5 6 6 12 3 12 -2 0 1 24 8 54 13 55 13 157 0 178 -4 6 -9 28 -10 49
-4 48 -43 126 -88 172 -50 52 -143 98 -236 118 -60 13 -196 17 -240 8z"/>
<path d="M777 10640 c-113 -28 -179 -92 -241 -233 -14 -31 -26 -60 -26 -65 0
-4 -5 -23 -10 -42 -5 -19 -12 -57 -15 -85 -3 -27 -8 -57 -10 -65 -19 -73 -28
-546 -13 -675 19 -156 45 -296 78 -421 23 -88 81 -263 117 -349 53 -130 172
-353 239 -448 19 -26 34 -49 34 -52 0 -3 7 -13 15 -22 8 -10 41 -53 73 -96 95
-124 186 -222 363 -387 79 -74 217 -179 339 -258 52 -34 100 -65 105 -69 6 -5
21 -14 35 -20 14 -7 66 -35 115 -63 50 -27 97 -53 105 -57 8 -3 53 -24 100
-45 47 -22 119 -53 160 -70 41 -17 84 -34 95 -39 136 -59 545 -180 687 -204
18 -3 40 -8 49 -11 9 -2 32 -7 50 -9 19 -3 44 -7 57 -10 12 -3 30 -7 40 -9 9
-2 40 -7 67 -10 28 -4 64 -9 80 -11 141 -19 160 -21 280 -32 121 -10 687 -10
800 1 50 4 110 10 135 12 44 3 68 7 153 20 23 3 56 8 72 10 17 2 68 10 115 19
47 8 97 17 113 20 36 6 64 12 112 25 22 5 56 12 75 15 19 3 42 9 50 12 18 8
15 7 65 18 43 9 42 9 65 17 16 6 99 30 115 34 6 1 69 21 140 45 72 24 133 42
138 41 4 -1 7 2 7 6 0 5 19 15 43 21 23 7 60 21 82 31 52 23 109 47 115 47 11
2 318 161 357 186 24 15 45 27 48 27 6 0 16 7 107 68 25 18 49 32 53 32 7 0
303 219 346 257 190 167 354 335 474 486 17 21 35 44 40 50 77 89 287 422 324
515 7 17 17 32 22 32 5 0 9 6 9 14 0 8 13 40 29 72 34 69 111 265 136 344 9
30 19 62 22 70 3 8 7 20 8 25 2 6 13 46 25 90 12 44 24 91 26 105 3 14 9 41
14 60 5 19 11 51 14 70 3 19 8 47 11 63 25 137 29 177 28 327 0 121 -4 155
-21 202 -34 95 -98 177 -161 210 -14 7 -29 17 -33 23 -4 5 -8 7 -8 3 0 -4 -17
-1 -37 6 -60 21 -161 12 -226 -18 -91 -44 -172 -132 -192 -211 -14 -51 -15
-59 -21 -100 -2 -22 -12 -74 -21 -115 -8 -41 -17 -86 -18 -100 -2 -14 -4 -25
-5 -25 -1 0 -3 -7 -5 -15 -21 -107 -131 -454 -163 -516 -5 -11 -14 -30 -20
-44 -24 -61 -119 -251 -154 -309 -21 -34 -38 -65 -38 -68 0 -5 -141 -216 -149
-223 -3 -3 -18 -23 -33 -45 -15 -22 -40 -54 -55 -71 -15 -16 -41 -47 -57 -68
-26 -34 -249 -261 -307 -312 -58 -51 -240 -194 -261 -205 -13 -6 -25 -15 -28
-19 -8 -13 -228 -150 -239 -150 -6 0 -11 -4 -11 -9 0 -5 -10 -13 -22 -16 -11
-4 -42 -19 -67 -34 -43 -24 -220 -109 -301 -144 -146 -62 -298 -115 -465 -161
-111 -32 -142 -39 -203 -51 -13 -2 -31 -6 -40 -9 -9 -3 -33 -8 -52 -11 -19 -3
-42 -8 -50 -10 -8 -2 -33 -7 -55 -10 -23 -3 -52 -8 -65 -10 -28 -6 -103 -15
-165 -20 -22 -2 -40 -4 -40 -5 0 -10 -652 -21 -670 -11 -5 3 -23 6 -40 7 -73
5 -191 19 -255 30 -36 6 -70 11 -117 18 -16 2 -48 9 -73 15 -25 5 -60 13 -79
16 -19 3 -37 8 -41 10 -3 2 -17 6 -31 8 -58 11 -254 72 -379 119 -117 43 -415
180 -430 197 -3 3 -25 17 -50 30 -52 28 -202 125 -241 155 -15 12 -39 30 -55
41 -15 11 -35 27 -44 35 -9 8 -31 27 -50 41 -72 55 -223 211 -298 309 -23 30
-47 60 -52 67 -64 78 -242 402 -255 463 0 3 -12 37 -27 75 -28 74 -48 135 -53
163 -2 9 -4 17 -5 17 -1 0 -3 7 -5 15 -1 8 -10 42 -18 75 -8 33 -18 78 -21
100 -3 22 -7 49 -10 60 -6 34 -16 97 -23 165 -9 81 -8 506 1 580 4 30 8 69 10
85 1 17 4 35 7 40 13 24 10 142 -5 176 -33 78 -137 134 -269 143 -15 1 -56 -5
-90 -14z"/>
<path d="M15815 10068 c-22 -5 -53 -15 -70 -23 -25 -11 -207 -156 -249 -197
-7 -7 -32 -28 -55 -47 -23 -19 -62 -53 -85 -75 -23 -23 -60 -56 -82 -75 -112
-96 -506 -482 -690 -676 l-66 -70 62 120 c33 66 65 124 71 130 5 5 9 17 9 27
0 10 7 21 15 24 8 4 13 9 10 13 -2 4 3 18 12 31 9 13 34 58 56 99 21 42 60
114 85 161 65 122 72 136 78 162 28 126 -17 249 -115 316 -78 53 -158 68 -255
47 -68 -14 -149 -82 -186 -156 -13 -24 -28 -47 -34 -51 -6 -4 -7 -8 -3 -8 7 0
-23 -59 -93 -185 -22 -40 -135 -247 -195 -360 -171 -318 -347 -695 -437 -933
-38 -102 -102 -298 -113 -345 -2 -12 -11 -49 -20 -82 -8 -33 -17 -75 -20 -94
-3 -18 -7 -36 -9 -40 -2 -3 -7 -31 -11 -61 -3 -30 -8 -66 -11 -80 -2 -14 -6
-73 -8 -132 -4 -94 -2 -114 17 -159 25 -63 80 -119 144 -150 72 -35 188 -34
264 3 63 31 93 62 197 199 39 52 81 105 92 117 11 11 20 26 20 31 0 6 6 14 13
18 8 4 24 24 38 43 13 19 26 37 30 40 3 3 32 39 64 80 32 41 61 77 64 80 4 3
24 28 46 55 66 83 177 215 258 308 l51 59 28 -34 c82 -95 263 -270 378 -364
19 -16 37 -31 40 -34 6 -7 268 -200 291 -215 9 -5 43 -28 75 -49 130 -86 304
-191 404 -243 30 -15 57 -31 58 -35 2 -5 9 -8 17 -8 7 0 18 -7 25 -15 7 -8 16
-13 20 -10 5 3 11 1 14 -4 4 -5 32 -23 64 -39 31 -16 195 -99 364 -186 192
-97 330 -161 367 -170 33 -8 61 -12 64 -10 2 2 23 6 46 9 57 7 115 38 163 87
39 40 77 110 77 145 0 10 1 32 2 48 3 44 -19 114 -52 166 -26 42 -73 81 -134
115 -42 22 -276 145 -425 222 -85 44 -183 95 -217 114 -33 18 -89 48 -124 67
-207 111 -551 333 -670 432 -26 22 -49 39 -52 39 -4 0 -17 10 -30 23 -12 12
-56 51 -96 87 -70 61 -174 165 -221 220 -12 14 -33 38 -47 53 l-25 29 174 171
c152 151 362 351 424 404 12 10 42 36 67 58 94 83 162 142 232 200 130 108
166 171 161 286 -8 183 -174 314 -351 277z"/>
<path d="M18240 9853 c-131 -16 -260 -44 -325 -73 -11 -5 -33 -11 -50 -15 -16
-4 -38 -14 -47 -22 -10 -9 -18 -13 -18 -9 0 3 -27 -7 -60 -24 -33 -17 -62 -30
-65 -30 -2 0 -22 -11 -42 -23 -21 -12 -41 -21 -45 -19 -5 1 -8 -2 -8 -8 0 -5
-5 -10 -10 -10 -24 0 -164 -114 -239 -193 -121 -129 -241 -341 -287 -507 -16
-59 -35 -154 -40 -205 -3 -33 -6 -64 -7 -68 -1 -5 -23 -30 -48 -57 -62 -64
-88 -133 -85 -225 2 -48 9 -83 24 -111 26 -52 80 -109 110 -118 12 -4 22 -11
22 -15 0 -5 20 -14 43 -21 32 -8 49 -20 62 -43 166 -294 443 -525 785 -656 47
-18 92 -34 100 -36 8 -2 47 -13 85 -25 39 -11 79 -22 90 -24 11 -2 40 -9 65
-15 53 -12 91 -19 140 -27 19 -3 46 -7 60 -10 29 -5 144 -17 178 -17 12 -1 22
-4 22 -7 0 -8 582 -4 655 4 28 3 68 8 90 11 22 2 63 7 90 10 28 4 61 8 75 11
14 3 32 6 40 6 8 0 51 7 95 15 44 9 91 17 105 18 14 2 63 13 110 25 47 12 92
23 100 25 74 18 173 50 214 69 154 71 218 241 145 384 -49 95 -104 142 -197
166 -62 16 -96 12 -221 -25 -58 -17 -114 -33 -125 -35 -12 -2 -33 -6 -48 -10
-15 -3 -29 -5 -30 -4 -2 1 -14 -3 -28 -8 -14 -5 -45 -12 -70 -16 -25 -3 -56
-9 -70 -12 -47 -10 -148 -24 -218 -29 -26 -2 -47 -4 -47 -5 0 -6 -204 -13
-355 -13 -194 0 -291 6 -439 28 -79 12 -245 52 -316 77 -61 21 -236 98 -245
108 -3 3 -23 17 -45 32 -69 46 -195 161 -195 179 0 3 17 12 38 21 20 9 82 35
136 58 183 77 368 179 506 279 93 68 254 228 302 301 143 216 191 466 121 642
-23 59 -54 107 -95 148 -37 37 -97 85 -107 85 -3 1 -16 6 -28 13 -25 14 -139
49 -163 51 -67 4 -170 6 -190 4z m-51 -634 c-59 -83 -183 -184 -309 -251 -80
-43 -200 -91 -207 -84 -3 3 6 24 21 46 14 22 26 44 26 49 0 5 3 11 8 13 4 2
20 23 36 46 17 24 50 62 75 84 50 44 173 107 223 113 16 2 33 6 36 9 3 3 30 6
59 6 l54 0 -22 -31z"/>
<path d="M12479 9466 c-130 -46 -196 -140 -204 -295 -7 -130 -16 -255 -20
-287 -2 -16 -6 -49 -9 -74 -3 -25 -8 -55 -10 -66 -2 -12 -7 -37 -10 -55 -3
-19 -8 -44 -10 -55 -2 -12 -7 -37 -10 -55 -5 -35 -28 -142 -46 -214 -22 -92
-69 -293 -74 -316 -2 -13 -13 -62 -25 -109 -21 -90 -31 -135 -35 -160 -2 -8
-6 -31 -10 -50 -4 -19 -9 -44 -11 -55 -2 -11 -4 -22 -5 -25 -1 -3 -2 -8 -1
-12 0 -4 -4 -32 -10 -62 -21 -116 -18 -167 17 -243 72 -159 282 -214 429 -113
82 56 111 108 130 230 3 19 8 42 10 50 2 8 7 31 10 50 3 19 10 55 15 80 5 25
12 56 14 70 2 14 11 54 20 90 8 36 18 76 20 90 4 20 38 164 63 265 2 11 6 29
9 40 2 11 17 79 33 150 16 72 32 146 35 165 3 19 12 71 20 115 8 44 18 105 21
135 3 30 7 65 10 78 6 32 17 212 20 307 1 84 -18 176 -45 209 -73 91 -142 129
-240 132 -36 2 -81 -3 -101 -10z"/>
</g>
</svg>
